<?xml version="1.0" encoding="iso-8859-1"?>
<!-- Generator: Adobe Illustrator 19.0.0, SVG Export Plug-In . SVG Version: 6.00 Build 0)  -->
<svg version="1.1" id="Layer_1" xmlns="http://www.w3.org/2000/svg" xmlns:xlink="http://www.w3.org/1999/xlink" x="0px" y="0px"
	 viewBox="0 0 512.003 512.003" style="enable-background:new 0 0 512.003 512.003;" xml:space="preserve">
<path style="fill:#FFEBD2;" d="M256.001,479.88c45.359,27.991,119.994,23.933,119.994,23.933
	c-4.378-9.974-7.875-31.932-7.875-31.932c23.999,0,47.873,7.934,47.873,7.934c7-21.933,0-47.998,0-47.998
	c19.999,0,31.999,9,31.999,8c0-10.003-5-28.999-15.999-47.998h31.999c0-16.434-15.999-39.999-15.999-39.999
	c-0.058,0,15.999,0.001,15.999,0.001s-7.333-37.331-47.998-55.997c-1.212-0.557,39.998-7.333,39.998-8
	c0-21.999-11.166-42.599-24.499-55.931l16.499-15.999c-11.065-23.332-26.433-47.859-55.997-55.858l15.999-16.138
	c-27.999-32.665-80.329-39.998-98.995-39.998c0,0,10.999-15.999,10.333-15.999c-32.331,0-49.331,8-63.33,23.999
	c-13.999-15.999-30.999-23.999-63.33-23.999c-0.667,0,10.333,15.999,10.333,15.999c-18.666,0-70.997,7.333-98.995,39.998
	l15.999,16.138c-29.565,8-44.932,32.525-55.997,55.858l16.499,15.999c-13.332,13.332-24.499,33.932-24.499,55.931
	c0,0.667,41.21,7.443,39.998,8c-40.665,18.666-47.998,55.997-47.998,55.997s16.057-0.001,15.999-0.001
	c0,0-15.999,23.565-15.999,39.999H80.01C69.01,410.817,64.01,429.813,64.01,439.816c0,1,11.999-8,31.999-8c0,0-7,26.065,0,47.998
	c0,0,23.874-7.934,47.873-7.934c0,0-3.497,21.959-7.875,31.932C136.007,503.813,210.642,507.872,256.001,479.88z"/>
<path style="fill:#FFFFFF;" d="M256.001,248.031c-37.008,0-81.004-6.989-106.587-11.727c-10.628-1.969-20.065,6.976-18.735,17.701
	c4.895,39.463,15.346,119.924,21.327,138.02c8,24.204,79.996,63.997,79.996,63.997l23.999-0.205L280,456.021
	c0,0,71.997-39.793,79.996-63.997c5.98-18.095,16.432-98.556,21.327-138.02c1.331-10.725-8.108-19.67-18.735-17.701
	C337.005,241.042,293.01,248.031,256.001,248.031z"/>
<ellipse style="fill:#FFDEB7;" cx="255.999" cy="415.821" rx="47.998" ry="56.197"/>
<path style="fill:#FFEBD2;" d="M272.668,338.782c-6.079,0-11.759,2.386-16.666,6.488c-4.907-4.102-10.588-6.488-16.666-6.488
	c-18.409,0-33.331,21.535-33.331,48.101c0,26.565,14.923,48.101,33.331,48.101c6.079,0,11.759-2.386,16.666-6.488
	c4.907,4.102,20.92,3.488,26.999,3.488c18.409,0,23.999-18.536,23.999-45.101C306.999,360.317,291.076,338.782,272.668,338.782z"/>
<path style="fill:#FFDEB7;" d="M248.002,264.03c0,0,119.994-0.278,199.991-48.137c-11.065-23.332-26.433-47.859-55.997-55.858
	l15.999-16.138c-27.999-32.665-80.329-39.998-98.995-39.998c0,0,10.999-15.999,10.333-15.999c-32.331,0-49.331,8-63.33,23.999
	c-13.999-15.999-30.999-23.999-63.33-23.999c-0.667,0,10.333,15.999,10.333,15.999c-18.666,0-70.997,7.333-98.995,39.998
	l15.999,16.138c-29.565,8-44.932,32.525-55.997,55.858c0,0,103.995,32.138,191.991,32.138L248.002,264.03z"/>
<path style="fill:#FFEBD2;" d="M294.689,369.56l-2.977,0.056c-3.52,3.685-9.611,7.31-19.712,10.27
	c-11.986,3.514-15.999,16.666-15.999,16.666s-4.013-13.152-15.999-16.666c-8.9-2.608-14.686-5.733-18.345-8.96l-5.647,0.106
	c-9.892,11.539-15.99,27.341-15.99,44.771c0,35.334,25.064,63.979,55.981,63.979s55.981-28.645,55.981-63.979
	C311.984,397.62,305.346,381.208,294.689,369.56z"/>
<path style="fill:#464655;" d="M256.001,396.551c0,0,4.013-13.152,15.999-16.666c10.102-2.96,16.192-6.585,19.712-10.27
	c3.217-3.368,4.287-6.787,4.287-9.795c0-13.254-13.489-23.999-39.998-23.999s-39.998,10.745-39.998,23.999
	c0,3.4,1.365,7.323,5.654,11.104c3.66,3.227,9.446,6.352,18.345,8.96C251.99,383.399,256.001,396.551,256.001,396.551z"/>
<g>
	<path style="fill:#BEAF9B;" d="M415.95,8.061c-15.328-2-65.978,48.953-71.977,96.936c23.649,4.885,46.181,20.185,68.021,41.935
		C449.008,96.821,426.824,9.479,415.95,8.061z"/>
	<path style="fill:#BEAF9B;" d="M96.64,8.061c-10.665,1.391-35.628,78.271,1.882,135.936c1.303,2.003,66.283-43.106,70.095-40.027
		C162.618,55.985,111.968,6.061,96.64,8.061z"/>
</g>
<path d="M176.028,287.842c-8.821,0-15.997,7.176-15.997,15.997c0,8.822,7.177,15.997,15.997,15.997s15.997-7.177,15.997-15.997
	C192.025,295.019,184.849,287.842,176.028,287.842z"/>
<path d="M335.976,287.842c-8.821,0-15.997,7.176-15.997,15.997c0,8.822,7.177,15.997,15.997,15.997
	c8.821,0,15.997-7.177,15.997-15.997C351.973,295.019,344.797,287.842,335.976,287.842z"/>
<path d="M461.969,359.823h1.965l0,0c2.392,0,4.658-1.07,6.178-2.917c1.52-1.847,2.133-4.277,1.672-6.625
	c-0.278-1.417-6.159-29.721-33.96-50.691c0.087-0.016,0.173-0.032,0.259-0.047c5.01-0.912,9.743-1.772,13.386-2.476
	c2.018-0.39,3.516-0.695,4.583-0.936c5.232-1.177,7.885-3.966,7.885-8.289c0-19.266-7.871-39.526-21.346-55.58l10.917-10.587
	c2.46-2.386,3.127-6.074,1.659-9.171c-7.956-16.773-23.722-37.494-45.482-50.69c36.787-36.714,34.809-101.852,23.979-138.013
	c-6.006-20.054-12.395-23.116-16.68-23.675c-6.452-0.847-14.457,2.517-24.477,10.267c-19.282,14.915-49.311,50.278-55.848,88.429
	c-4.672-0.878-9.126-1.529-13.25-1.985c0.453-0.697,0.853-1.323,1.199-1.873c1.899-3.019,4.052-6.441,1.811-10.701
	c-1.383-2.629-4.133-4.289-7.104-4.289c-28.8,0-47.825,6.035-63.313,20.494c-15.488-14.459-34.513-20.494-63.313-20.494
	c-2.971,0-5.721,1.66-7.104,4.289c-2.241,4.26-0.089,7.682,1.811,10.701c0.346,0.55,0.746,1.176,1.199,1.873
	c-3.956,0.437-8.22,1.058-12.683,1.883c-6.575-38.112-36.565-73.426-55.829-88.327c-10.018-7.75-18.022-11.114-24.476-10.267
	C91.32,0.687,84.93,3.748,78.925,23.802C68.116,59.89,66.125,124.839,102.682,161.593c-21.949,13.184-37.846,34.044-45.846,50.913
	c-1.469,3.097-0.802,6.786,1.659,9.171l10.917,10.587c-13.475,16.055-21.346,36.314-21.346,55.58c0,4.323,2.653,7.111,7.885,8.289
	c1.066,0.24,2.565,0.546,4.583,0.936c3.644,0.703,8.376,1.564,13.386,2.476c0.086,0.016,0.172,0.031,0.259,0.047
	c-27.797,20.97-33.682,49.275-33.96,50.691c-0.461,2.347,0.152,4.777,1.672,6.625c1.52,1.847,3.786,2.917,6.178,2.917h1.965
	c-4.745,9.025-9.965,21.368-9.965,31.988c0,4.418,3.582,8,8,8h18.83c-7.437,16.071-10.834,30.997-10.834,39.985
	c0,2.76,1.454,5.388,3.795,6.85c3.914,2.442,7.441,0.714,9.775-0.427c2.866-1.402,8.539-4.178,16.565-5.575
	c-1.51,10.427-2.517,26.689,2.233,41.572c0.65,2.037,2.088,3.729,3.994,4.699c1.907,0.969,4.122,1.135,6.15,0.461
	c0.193-0.064,16.812-5.524,35.66-7.102c-1.432,7.059-3.45,15.567-5.521,20.287c-1.055,2.403-0.864,5.171,0.511,7.407
	c1.375,2.235,3.759,3.654,6.38,3.797c0.681,0.037,4.701,0.239,11.061,0.239c22.175,0,72.771-2.462,109.334-22.892
	c36.565,20.432,87.162,22.892,109.334,22.892c6.358,0,10.381-0.202,11.061-0.239c2.621-0.143,5.005-1.562,6.38-3.797
	c1.375-2.236,1.566-5.003,0.511-7.407c-2.068-4.712-4.086-13.221-5.52-20.284c18.797,1.581,35.468,7.036,35.658,7.099
	c2.029,0.673,4.243,0.507,6.15-0.461c1.906-0.97,3.344-2.662,3.994-4.699c4.75-14.883,3.743-31.145,2.233-41.572
	c8.027,1.397,13.699,4.173,16.565,5.575c2.335,1.143,5.862,2.87,9.775,0.427c2.342-1.461,3.795-4.089,3.795-6.85
	c0-8.989-3.399-23.914-10.835-39.985h18.83c4.418,0,8-3.582,8-8C471.934,381.191,466.713,368.848,461.969,359.823z M381.813,43.345
	c14.142-17.069,26.627-25.452,31.685-27.055c4.198,6.59,11.77,31.761,10.975,62.166c-0.439,16.799-3.521,38.15-14.065,56.345
	c-16.055-16.608-37.881-26.632-58.122-32.319C355.265,83.93,365.909,62.54,381.813,43.345z M99.091,16.29
	c5.059,1.604,17.543,9.987,31.685,27.055c15.858,19.14,26.49,40.463,29.504,58.977c-20.245,5.617-42.151,15.564-58.32,32.102
	c-10.37-18.112-13.407-39.286-13.843-55.968C87.32,48.049,94.893,22.878,99.091,16.29z M219.582,379.409
	c4.365,3.024,10.258,5.828,18.174,8.149c6.13,1.797,9.265,8.064,10.246,10.415v25.591c-18.785-1.089-33.266-5.892-39.892-11.062
	C208.72,400.236,212.72,388.718,219.582,379.409z M256.001,343.828c19.132,0,31.988,6.427,31.988,15.993
	c0,4.406-6.82,9.035-18.243,12.382c-5.995,1.757-10.475,5.204-13.744,8.86c-3.27-3.656-7.75-7.103-13.745-8.86
	c-11.422-3.348-18.242-7.977-18.242-12.382C224.014,350.255,236.869,343.828,256.001,343.828z M264.001,397.979
	c0.99-2.352,4.154-8.636,10.246-10.422c7.925-2.323,13.821-5.13,18.187-8.157c6.87,9.299,10.856,20.781,11.462,33.098
	c-6.625,5.173-21.107,9.977-39.894,11.064v-25.585H264.001z M215.22,445.253c-0.239-0.715-0.584-1.403-1.033-2.043
	c-1.743-3.604-3.152-7.453-4.182-11.493c12.083,5.098,28.365,8.081,45.996,8.081c17.631,0,33.912-2.983,45.996-8.081
	c-1.029,4.041-2.439,7.889-4.182,11.493c-0.449,0.64-0.794,1.328-1.033,2.043c-8.472,15.909-23.581,26.53-40.781,26.53
	C238.801,471.782,223.692,461.162,215.22,445.253z M431.944,383.811c-2.86,0-5.502,1.526-6.931,4.004
	c-1.428,2.478-1.426,5.529,0.007,8.004c6.532,11.282,10.797,22.482,13.031,31.393c-5.774-1.83-13.254-3.414-22.103-3.414
	c-2.488,0-4.834,1.158-6.348,3.132c-1.514,1.974-2.023,4.54-1.378,6.943c0.056,0.208,4.828,18.351,1.907,35.905
	c-9.431-2.466-25.597-5.927-42.041-5.927c-2.341,0-4.565,1.026-6.085,2.807s-2.183,4.139-1.815,6.451
	c0.267,1.674,2.078,12.772,4.78,22.853c-17.678-0.074-54.333-1.795-85.07-13.408c12.973-5.9,23.85-16.44,30.983-29.798
	c3.933-1.965,17.462,2.537,28.77,9.768c1.319,0.847,2.821,1.268,4.321,1.268c1.639,0,3.274-0.502,4.666-1.501
	c2.665-1.913,3.892-5.257,3.096-8.439l-6.454-25.814c9.811-3.191,22.58,0.843,27.3,3.014c2.896,1.352,6.319,0.849,8.706-1.277
	c2.387-2.126,3.277-5.47,2.267-8.502l-13.465-40.395l16.403-5.468c4.191-1.397,6.457-5.928,5.06-10.118
	c-1.396-4.192-5.927-6.457-10.119-5.06l-23.992,7.998c-2.013,0.671-3.677,2.114-4.625,4.012c-0.949,1.897-1.105,4.095-0.434,6.107
	l11.142,33.427c-9.599-1.693-21.917-1.677-32.134,5.474c-2.715,1.9-3.977,5.279-3.173,8.494l3.715,14.858
	c-4.624-1.851-9.719-3.4-14.692-3.951c1.747-6.48,2.702-13.34,2.737-20.444c0.002-0.045,0.002-0.09,0.003-0.135
	c0-0.089,0.006-0.177,0.006-0.266c0-18.433-6.07-35.723-17.159-49.08c0.847-2.416,1.165-4.756,1.165-6.902
	c0-14.758-12.567-31.992-47.987-31.992s-47.987,17.234-47.987,31.992c0,2.152,0.319,4.5,1.171,6.923
	c-11.069,13.361-17.166,30.727-17.166,49.059c0,0.089,0.006,0.177,0.006,0.266c0.001,0.045,0.001,0.09,0.003,0.135
	c0.035,7.104,0.99,13.964,2.737,20.444c-4.974,0.551-10.069,2.1-14.692,3.951l3.715-14.858c0.804-3.215-0.458-6.594-3.173-8.494
	c-10.218-7.153-22.536-7.167-32.133-5.474l11.142-33.427c0.671-2.013,0.515-4.21-0.434-6.107c-0.949-1.898-2.613-3.341-4.625-4.012
	l-23.992-7.998c-4.192-1.397-8.722,0.869-10.119,5.06c-1.397,4.191,0.868,8.722,5.06,10.118l16.403,5.468l-13.465,40.395
	c-1.008,3.025-0.114,6.355,2.26,8.483c2.375,2.128,5.795,2.638,8.693,1.305c4.736-2.179,17.509-6.216,27.319-3.022l-6.454,25.814
	c-0.795,3.182,0.432,6.527,3.096,8.439c1.391,0.999,3.027,1.501,4.666,1.501c1.5,0,3.002-0.421,4.321-1.268
	c11.086-7.116,24.841-11.687,28.773-9.76c7.134,13.353,18.008,23.892,30.98,29.791c-30.739,11.614-67.395,13.334-85.071,13.408
	c2.703-10.079,4.514-21.178,4.78-22.853c0.368-2.313-0.295-4.67-1.815-6.451c-1.52-1.781-3.744-2.807-6.085-2.807
	c-16.441,0-32.604,3.459-42.036,5.925c-2.889-17.489,1.85-35.704,1.902-35.904c0.646-2.403,0.136-4.969-1.378-6.943
	c-1.514-1.974-3.86-3.132-6.348-3.132c-8.85,0-16.33,1.584-22.103,3.414c2.235-8.911,6.5-20.11,13.031-31.393
	c1.433-2.475,1.436-5.527,0.007-8.004c-1.429-2.478-4.071-4.004-6.931-4.004H57.335c2.926-10.552,10.149-22.77,13.347-27.495
	c0.915-1.347,1.379-2.911,1.381-4.481c0-0.007,0-0.011,0-0.013c0-1.65-0.505-3.208-1.389-4.505
	c-0.002-0.003-0.004-0.006-0.006-0.009c0,0,0,0-0.001-0.001c-0.229-0.335-0.481-0.65-0.755-0.943
	c-0.002-0.002-0.004-0.004-0.006-0.006c-0.001-0.001-0.002-0.002-0.003-0.003c-0.826-0.883-1.857-1.583-3.034-2.024
	c-0.372-0.14-0.755-0.251-1.147-0.334c-0.004-0.001-0.008-0.002-0.011-0.002c-0.582-0.123-1.157-0.183-1.746-0.171h-4.862
	c4.751-11.176,15.885-29.511,40.288-40.711c3.174-1.457,5.062-4.835,4.625-8.3c-0.756-6.003-5.352-6.894-12.966-8.368
	c-3.944-0.764-9.192-1.719-14.266-2.642c-3.934-0.715-8.692-1.581-12.37-2.282c1.703-15.679,9.584-31.717,21.802-43.936
	c1.516-1.515,2.359-3.575,2.343-5.718c-0.017-2.143-0.893-4.19-2.431-5.682l-12.243-11.872
	c10.173-18.416,29.904-40.178,56.247-47.307c3.057-0.827,5.338-3.379,5.818-6.51c0.48-3.131-0.932-6.249-3.601-7.954l-15.742-10.058
	c27.191-24.833,70.756-30.518,86.411-30.518c2.971,0,5.697-1.646,7.08-4.275s1.195-5.809-0.488-8.257
	c-0.61-0.887-1.237-1.804-1.866-2.729c21.798,2.319,32.993,9.962,42.237,20.526c0.024,0.028,0.052,0.052,0.077,0.079
	c0.094,0.104,0.194,0.204,0.294,0.304c0.099,0.099,0.198,0.198,0.301,0.291c0.028,0.025,0.052,0.053,0.081,0.078
	c0.061,0.053,0.126,0.098,0.188,0.149c0.121,0.099,0.241,0.198,0.366,0.289c0.093,0.068,0.189,0.131,0.284,0.195
	c0.124,0.082,0.248,0.164,0.375,0.239c0.108,0.063,0.218,0.122,0.328,0.18c0.118,0.062,0.236,0.124,0.356,0.179
	c0.124,0.058,0.25,0.11,0.376,0.161c0.111,0.045,0.222,0.089,0.334,0.129c0.136,0.048,0.274,0.09,0.412,0.13
	c0.107,0.031,0.214,0.063,0.323,0.089c0.143,0.035,0.287,0.064,0.431,0.092c0.108,0.021,0.216,0.041,0.324,0.057
	c0.144,0.021,0.287,0.036,0.43,0.049c0.114,0.011,0.227,0.021,0.341,0.026c0.137,0.007,0.274,0.008,0.412,0.008
	c0.121,0,0.243-0.001,0.364-0.007c0.13-0.006,0.259-0.018,0.389-0.03c0.128-0.012,0.255-0.025,0.383-0.044
	c0.124-0.018,0.247-0.041,0.37-0.064c0.13-0.025,0.26-0.051,0.389-0.083c0.121-0.029,0.241-0.064,0.361-0.1
	c0.126-0.037,0.251-0.075,0.376-0.119c0.124-0.043,0.246-0.092,0.368-0.142c0.116-0.047,0.231-0.095,0.346-0.147
	c0.129-0.06,0.255-0.125,0.381-0.192c0.103-0.055,0.206-0.109,0.307-0.168c0.133-0.078,0.261-0.162,0.39-0.248
	c0.091-0.061,0.183-0.121,0.272-0.187c0.126-0.093,0.249-0.192,0.371-0.292c0.062-0.051,0.127-0.095,0.188-0.148
	c0.028-0.025,0.053-0.053,0.081-0.078c0.103-0.093,0.201-0.191,0.299-0.29c0.101-0.101,0.201-0.201,0.295-0.305
	c0.025-0.027,0.052-0.051,0.077-0.079c9.244-10.564,20.439-18.207,42.237-20.526c-0.629,0.924-1.257,1.842-1.866,2.729
	c-1.683,2.448-1.871,5.627-0.488,8.257c1.383,2.629,4.109,4.275,7.08,4.275c15.655,0,59.22,5.684,86.411,30.518l-15.742,10.058
	c-2.668,1.705-4.081,4.824-3.601,7.954c0.48,3.13,2.761,5.683,5.818,6.51c26.344,7.129,46.076,28.89,56.247,47.307l-12.243,11.872
	c-1.538,1.492-2.414,3.539-2.431,5.682c-0.016,2.143,0.828,4.203,2.343,5.718c12.218,12.218,20.099,28.257,21.802,43.936
	c-3.679,0.701-8.438,1.566-12.37,2.282c-5.075,0.923-10.322,1.878-14.266,2.642c-7.615,1.475-12.21,2.365-12.966,8.368
	c-0.436,3.465,1.452,6.843,4.626,8.3c24.411,11.205,35.543,29.547,40.289,40.711h-4.864c-0.83-0.011-1.64,0.105-2.449,0.353
	c-3.358,1.032-5.649,4.134-5.649,7.647c0,0.004,0,0.036,0.002,0.091c0.018,1.542,0.48,3.075,1.376,4.398
	c3.202,4.729,10.424,16.947,13.35,27.499h-22.72V383.811z"/>
<path d="M379.427,293.137l11.188-16.784c2.063-3.093,1.722-7.2-0.822-9.911c-17.245-18.379-40.893-27.67-66.579-26.166
	c-23.621,1.384-46.79,12.188-57.652,26.885c-2.626,3.553-1.875,8.562,1.679,11.187c3.553,2.626,8.563,1.875,11.187-1.679
	c6.603-8.933,23.727-19.133,45.722-20.422c13.547-0.791,32.625,1.636,49.478,16.742l-12.32,18.481
	c-1.331,1.996-1.695,4.483-0.994,6.776c0.701,2.293,2.395,4.152,4.613,5.062c12.408,5.092,23.366,21.794,27.376,34.923
	c1.053,3.447,4.222,5.665,7.648,5.665c0.774,0,1.561-0.113,2.34-0.351c4.226-1.291,6.605-5.762,5.314-9.988
	C403.379,319.722,393.162,302.654,379.427,293.137z"/>
<path d="M188.787,240.275c-25.691-1.508-49.334,7.788-66.579,26.166c-2.544,2.711-2.885,6.818-0.822,9.911l11.188,16.784
	c-13.735,9.518-23.953,26.585-28.179,40.421c-1.291,4.226,1.088,8.697,5.314,9.988c0.779,0.238,1.565,0.351,2.34,0.351
	c3.426,0,6.595-2.218,7.648-5.665c4.011-13.129,14.968-29.832,27.376-34.923c2.219-0.91,3.912-2.769,4.613-5.062
	c0.701-2.293,0.336-4.781-0.994-6.776l-12.32-18.481c16.853-15.107,35.927-17.536,49.478-16.742
	c21.995,1.289,39.119,11.489,45.722,20.422c2.627,3.554,7.636,4.305,11.187,1.679c3.553-2.626,4.305-7.636,1.679-11.187
	C235.577,252.464,212.408,241.659,188.787,240.275z"/>
<path d="M247.582,463.563c2.773,0.15,5.606,0.227,8.42,0.227c3.006,0,6.024-0.086,8.97-0.258c4.411-0.256,7.779-4.039,7.523-8.45
	s-4.036-7.782-8.45-7.523c-5.109,0.296-10.456,0.306-15.596,0.027c-4.402-0.237-8.182,3.144-8.421,7.555
	C239.788,459.552,243.171,463.324,247.582,463.563z"/>
<g>
</g>
<g>
</g>
<g>
</g>
<g>
</g>
<g>
</g>
<g>
</g>
<g>
</g>
<g>
</g>
<g>
</g>
<g>
</g>
<g>
</g>
<g>
</g>
<g>
</g>
<g>
</g>
<g>
</g>
</svg>
