<?xml version="1.0" encoding="iso-8859-1"?>
<!-- Generator: Adobe Illustrator 19.0.0, SVG Export Plug-In . SVG Version: 6.00 Build 0)  -->
<svg version="1.1" id="Layer_1" xmlns="http://www.w3.org/2000/svg" xmlns:xlink="http://www.w3.org/1999/xlink" x="0px" y="0px"
	 viewBox="0 0 511.998 511.998" style="enable-background:new 0 0 511.998 511.998;" xml:space="preserve">
<path style="fill:#F0C419;" d="M425.843,267.632c70.601,39.356,79.32,104.804,74.41,136.214c0,0-42.061-79.475-110.046-96.858
	C406.904,299.418,419.917,285.158,425.843,267.632z"/>
<path style="fill:#DBB67E;" d="M239.236,331.689c-21.389,5.297-43.959,7.98-65.37,8.443c-2.252,0.055-4.492,0.078-6.71,0.078
	c-1.921,0-3.829-0.033-5.75-0.11c-21.334-0.85-42.634-6.368-62.202-15.54c-49.876-23.376-88.581-70.535-88.581-124.901
	c0-77.621,78.912-140.541,156.533-140.541c54.72,0,118.799,47.944,151.842,103.425c7.427,12.46,21.554,19.237,35.969,17.559
	c3.201-0.364,6.479-0.508,9.812-0.408c34.589,1.048,62.941,28.96,64.487,63.538c0.387,8.565-0.85,16.787-3.422,24.402
	c-5.926,17.526-18.939,31.786-35.637,39.356c-8.377,3.808-17.692,5.926-27.504,5.926c-10.728,0-20.87-2.527-29.843-7.042
	c-11.567-5.805-25.34-4.624-36.244,2.351C280.105,318.798,260.238,326.49,239.236,331.689z"/>
<g>
	<path style="fill:#A3875E;" d="M239.236,331.689c0.971,3.135,1.49,6.446,1.49,9.9c0,18.476-14.966,33.441-33.441,33.441
		s-33.441-14.966-33.441-33.441c0-0.463,0.011-0.916,0.022-1.368v-0.089C195.276,339.669,217.846,336.987,239.236,331.689z"/>
	<path style="fill:#A3875E;" d="M161.406,340.099c0.022,0.497,0.033,0.993,0.033,1.49c0,18.476-14.977,33.441-33.452,33.441
		c-18.464,0-33.441-14.966-33.441-33.441c0-6.213,1.7-12.041,4.658-17.03C118.77,333.731,140.071,339.249,161.406,340.099z"/>
</g>
<path d="M85.596,329.588c-1.098,3.887-1.674,7.922-1.674,12c0,20.635,14.26,37.995,33.441,42.761v68.532
	c0,5.866,4.756,10.622,10.622,10.622h34.335c5.867,0,10.622-4.757,10.622-10.622c0-5.866-4.756-10.622-10.622-10.622h-23.713v-57.91
	c12.784-3.175,23.382-11.94,29.031-23.544c5.648,11.603,16.242,20.368,29.022,23.544v68.532c0,5.866,4.756,10.622,10.622,10.622
	h34.324c5.867,0,10.622-4.757,10.622-10.622c0-5.866-4.756-10.622-10.622-10.622h-23.702v-57.91
	c19.181-4.766,33.441-22.127,33.441-42.761c0-0.712-0.044-1.418-0.078-2.127c19.573-5.625,36.722-13.102,51.069-22.288
	c7.96-5.091,17.829-5.784,25.747-1.809c10.784,5.424,22.43,8.174,34.617,8.174c9.787,0,19.267-1.794,28.236-5.33
	c60.598,17.74,99.536,89.874,99.926,90.607c1.861,3.518,5.499,5.654,9.385,5.654c0.582,0,1.17-0.049,1.757-0.147
	c4.512-0.756,8.034-4.316,8.741-8.836c1.623-10.38,3.941-38.061-9.561-70.817c-12.239-29.69-33.407-53.906-62.971-72.091
	c1.393-6.475,1.964-13.11,1.661-19.824c-1.792-40.1-34.638-72.465-74.786-73.681c-3.781-0.118-7.591,0.047-11.353,0.475
	c-10.337,1.204-20.392-3.683-25.614-12.444c-17.231-28.93-42.383-55.842-70.821-75.78c-30.638-21.479-61.81-32.831-90.147-32.831
	c-13.969,0-28.192,1.897-42.275,5.638c-5.67,1.506-9.045,7.324-7.54,12.993c1.506,5.669,7.325,9.049,12.993,7.54
	c12.305-3.269,24.693-4.927,36.822-4.927c48.005,0,109.36,42.233,142.717,98.24c9.503,15.942,27.688,24.845,46.294,22.675
	c2.735-0.31,5.528-0.425,8.289-0.345c29.093,0.883,52.899,24.336,54.197,53.4c0.317,7.031-0.65,13.938-2.872,20.521
	c-4.95,14.637-15.87,26.695-29.971,33.088c-7.262,3.3-15.036,4.976-23.107,4.976c-8.84,0-17.275-1.987-25.078-5.913
	c-14.587-7.324-32.493-6.213-46.738,2.899c-14.49,9.28-32.472,16.644-53.446,21.905c-0.524,0.088-1.035,0.21-1.53,0.373
	c-19.392,4.738-40.901,7.493-62.305,7.956c-2.028,0.05-4.139,0.073-6.451,0.073c-1.876,0-3.618-0.033-5.328-0.102
	c-19.365-0.771-39.462-5.8-58.117-14.543c-50.093-23.48-82.462-68.732-82.462-115.284c0-38.28,22.122-76.38,59.176-101.92
	c4.83-3.329,6.047-9.944,2.718-14.774c-3.329-4.831-9.946-6.046-14.775-2.718c-20.252,13.958-37.185,31.738-48.97,51.419
	C6.526,153.161,0,176.037,0,199.658C0,251.467,33.288,301.512,85.596,329.588z M488.743,367.162
	c-16.368-21.37-41.872-48.222-74.854-63.045c6.77-6,12.461-13.16,16.785-21.142C467.695,307.22,483.595,339.829,488.743,367.162z
	 M127.986,364.407c-12.582,0-22.818-10.237-22.818-22.818c0-0.953,0.066-1.901,0.183-2.84c14.304,5.618,29.176,9.362,43.912,11.048
	C145.955,358.33,137.677,364.407,127.986,364.407z M207.284,364.407c-9.521,0-17.69-5.866-21.105-14.17
	c14.89-0.88,29.665-2.774,43.696-5.599C228.376,355.78,218.83,364.407,207.284,364.407z"/>
<path d="M96.566,64.279c-0.941,0.428-1.879,0.864-2.812,1.309c-5.297,2.519-7.55,8.857-5.031,14.154
	c1.82,3.826,5.629,6.062,9.601,6.062c1.529,0,3.083-0.331,4.555-1.031c0.829-0.394,1.66-0.782,2.496-1.163
	c5.339-2.431,7.695-8.732,5.262-14.071C108.204,64.202,101.905,61.845,96.566,64.279z"/>
<path d="M385.223,238.926v-7.361c0-5.866-4.756-10.622-10.622-10.622c-5.867,0-10.622,4.757-10.622,10.622v7.361
	c0,5.866,4.756,10.622,10.622,10.622C380.467,249.549,385.223,244.792,385.223,238.926z"/>
<g>
</g>
<g>
</g>
<g>
</g>
<g>
</g>
<g>
</g>
<g>
</g>
<g>
</g>
<g>
</g>
<g>
</g>
<g>
</g>
<g>
</g>
<g>
</g>
<g>
</g>
<g>
</g>
<g>
</g>
</svg>
